# xmcd
#
# Track frame offsets: 
#        150
#        12963
#        24956
#        37996
#        47211
#        58451
#        67661
#        76505
#        85660
#        99114
#        110997
#        124838
#        137232
#        150316
#        162456
#        176322
#        189939
#        202109
#        213282
#        226110
#        239619
#        254550
#        266932
#        280059
#
# Disc length: 3873 seconds
#
# Revision: 0
# Processed by: cddbd v1.5PL3 Copyright (c) Steve Scherf et al.
# Submitted via: ExactAudioCopy v0.90a11
#
DISCID=430f1f18
DTITLE=FREDDY FENDER - Crazy Cajun Recordings CD2
DYEAR=1900
DGENRE=
TTITLE0=Wasted Days And Wasted Nights
TTITLE1=Crazy Crazy Baby
TTITLE2=Since I Met You Baby
TTITLE3=Please Mr Sandman
TTITLE4=Mean Woman
TTITLE5=You Made Me Cry
TTITLE6=Just Because
TTITLE7=Breaking Up Is Hard To Do
TTITLE8=There Is Something On Your Mind
TTITLE9=Ooh Poo Pah Doo
TTITLE10=Money
TTITLE11=Donna
TTITLE12=In The Still Of The Night
TTITLE13=Going Out With The Tide
TTITLE14=Fannie Mae
TTITLE15=Get Out Of My Life Woman
TTITLE16=Little Bitty Pretty One
TTITLE17=Just A Moment  Of Your Time
TTITLE18=Going Out With The Tide
TTITLE19=There Is Something On Your Mind
TTITLE20=Graduation Night
TTITLE21=I'M Asking Forgiveness
TTITLE22=Love Me Tender
TTITLE23=You Don'T Have To Go
EXTD=
EXTT0=
EXTT1=
EXTT2=
EXTT3=
EXTT4=
EXTT5=
EXTT6=
EXTT7=
EXTT8=
EXTT9=
EXTT10=
EXTT11=
EXTT12=
EXTT13=
EXTT14=
EXTT15=
EXTT16=
EXTT17=
EXTT18=
EXTT19=
EXTT20=
EXTT21=
EXTT22=
EXTT23=
PLAYORDER=
